<mxfile host="app.diagrams.net" agent="Mozilla/5.0 (Windows NT 10.0; Win64; x64) AppleWebKit/537.36 (KHTML, like Gecko) Chrome/127.0.0.0 Safari/537.36 Edg/127.0.0.0" version="24.7.7">
  <diagram name="PÃ¡gina-1" id="L8Nvi3gEUZeD2zl153jj">
    <mxGraphModel dx="1869" dy="567" grid="1" gridSize="10" guides="1" tooltips="1" connect="1" arrows="1" fold="1" page="1" pageScale="1" pageWidth="827" pageHeight="1169" math="0" shadow="0">
      <root>
        <mxCell id="0" />
        <mxCell id="1" parent="0" />
        <mxCell id="ocVRv5BZ4if-jJy6o7bK-3" value="" style="edgeStyle=orthogonalEdgeStyle;rounded=0;orthogonalLoop=1;jettySize=auto;html=1;" edge="1" parent="1" source="ocVRv5BZ4if-jJy6o7bK-1" target="ocVRv5BZ4if-jJy6o7bK-2">
          <mxGeometry relative="1" as="geometry" />
        </mxCell>
        <mxCell id="ocVRv5BZ4if-jJy6o7bK-1" value="Tweet" style="rounded=0;whiteSpace=wrap;html=1;" vertex="1" parent="1">
          <mxGeometry x="340" y="70" width="140" height="70" as="geometry" />
        </mxCell>
        <mxCell id="ocVRv5BZ4if-jJy6o7bK-2" value="Coment" style="rounded=0;whiteSpace=wrap;html=1;" vertex="1" parent="1">
          <mxGeometry x="340" y="220" width="140" height="70" as="geometry" />
        </mxCell>
        <mxCell id="ocVRv5BZ4if-jJy6o7bK-7" style="edgeStyle=orthogonalEdgeStyle;rounded=0;orthogonalLoop=1;jettySize=auto;html=1;" edge="1" parent="1" source="ocVRv5BZ4if-jJy6o7bK-4" target="ocVRv5BZ4if-jJy6o7bK-1">
          <mxGeometry relative="1" as="geometry" />
        </mxCell>
        <mxCell id="ocVRv5BZ4if-jJy6o7bK-4" value="Coment" style="rounded=0;whiteSpace=wrap;html=1;" vertex="1" parent="1">
          <mxGeometry x="500" y="220" width="140" height="70" as="geometry" />
        </mxCell>
        <mxCell id="ocVRv5BZ4if-jJy6o7bK-6" style="edgeStyle=orthogonalEdgeStyle;rounded=0;orthogonalLoop=1;jettySize=auto;html=1;entryX=0.5;entryY=1;entryDx=0;entryDy=0;" edge="1" parent="1" source="ocVRv5BZ4if-jJy6o7bK-5" target="ocVRv5BZ4if-jJy6o7bK-1">
          <mxGeometry relative="1" as="geometry" />
        </mxCell>
        <mxCell id="ocVRv5BZ4if-jJy6o7bK-5" value="Coment" style="rounded=0;whiteSpace=wrap;html=1;" vertex="1" parent="1">
          <mxGeometry x="170" y="220" width="140" height="70" as="geometry" />
        </mxCell>
        <mxCell id="ocVRv5BZ4if-jJy6o7bK-9" style="edgeStyle=orthogonalEdgeStyle;rounded=0;orthogonalLoop=1;jettySize=auto;html=1;entryX=0;entryY=0.5;entryDx=0;entryDy=0;" edge="1" parent="1" source="ocVRv5BZ4if-jJy6o7bK-8" target="ocVRv5BZ4if-jJy6o7bK-5">
          <mxGeometry relative="1" as="geometry" />
        </mxCell>
        <mxCell id="ocVRv5BZ4if-jJy6o7bK-11" value="" style="edgeStyle=orthogonalEdgeStyle;rounded=0;orthogonalLoop=1;jettySize=auto;html=1;" edge="1" parent="1" source="ocVRv5BZ4if-jJy6o7bK-8" target="ocVRv5BZ4if-jJy6o7bK-10">
          <mxGeometry relative="1" as="geometry" />
        </mxCell>
        <mxCell id="ocVRv5BZ4if-jJy6o7bK-8" value="Share" style="rounded=0;whiteSpace=wrap;html=1;" vertex="1" parent="1">
          <mxGeometry x="-20" y="170" width="140" height="70" as="geometry" />
        </mxCell>
        <mxCell id="ocVRv5BZ4if-jJy6o7bK-13" value="" style="edgeStyle=orthogonalEdgeStyle;rounded=0;orthogonalLoop=1;jettySize=auto;html=1;" edge="1" parent="1" source="ocVRv5BZ4if-jJy6o7bK-10" target="ocVRv5BZ4if-jJy6o7bK-12">
          <mxGeometry relative="1" as="geometry" />
        </mxCell>
        <mxCell id="ocVRv5BZ4if-jJy6o7bK-10" value="Comment" style="rounded=0;whiteSpace=wrap;html=1;" vertex="1" parent="1">
          <mxGeometry x="-20" y="320" width="140" height="70" as="geometry" />
        </mxCell>
        <mxCell id="ocVRv5BZ4if-jJy6o7bK-12" value="Share" style="rounded=0;whiteSpace=wrap;html=1;" vertex="1" parent="1">
          <mxGeometry x="-240" y="370" width="140" height="70" as="geometry" />
        </mxCell>
      </root>
    </mxGraphModel>
  </diagram>
</mxfile>
